<svg id="Слой_1" data-name="Слой 1" xmlns="http://www.w3.org/2000/svg" viewBox="0 0 537.84861 500"><defs><style>.cls-1{fill:none;}.cls-2{fill:#c45d30;}.cls-3{fill:#f5ede0;}.cls-4{fill:#21201c;}.cls-5{fill:#ed9355;}.cls-6{fill:#4f301c;}.cls-7{fill:#64483a;}.cls-8{fill:#db2f47;}.cls-9{fill:#f4f8fb;}.cls-10{fill:#2a2f35;}.cls-11{fill:#282f35;}.cls-12{fill:#2b2e33;}.cls-13{fill:#2a2f33;}.cls-14{fill:#e85a70;}.cls-15{fill:#fdd888;}</style></defs><title>СВГЭ</title><path class="cls-1" d="M134.57194,464.856c-.93012-2.18669-1.93768-4.34906-2.86889-6.53052-.06663-.15623-.12293-.31624-.18882-.47272-5.7998-7.346-11.12725-14.95811-14.98985-23.41184-6.95789-9.70593-12.67087-20.43037-17.82093-31.23711-4.63733-9.73086-9.164-19.50572-11.292-30.07721-1.90753-9.47649-1.77306-18.631-1.91215-29.1q-.02224-1.67566-.04267-3.3528-22.08282-.59217-44.16538-1.18459c-8.854-.23745-18.1255-.58664-25.8017-4.979a26.57915,26.57915,0,0,1,8.05591-49.18559c5.238-1.051,10.64528-.526,15.98343-.27757,15.05148.70032,30.768.71126,45.82816,1.78473.55333-32.44165,2.67509-64.78845,8.87137-96.58826,1.14849-5.89415,2.53661-11.98088,6.21647-16.71986,7.50793-9.66836,21.51745-10.52236,33.7387-10.54583,2.005-.00389,4.01094-.02651,6.01634-.03988a133.83825,133.83825,0,0,0-1.94437-18.839c-2.60153-15.361-6.86147-30.4642-8.64948-45.93127a147.04172,147.04172,0,0,1,15.72956-84.44882q6.31787.39885,12.63561.79759c4.62956.29229,9.32015.59564,13.71687,2.0127,7.00724,2.25842,12.69592,7.14294,18.10166,11.96824a841.32031,841.32031,0,0,1,68.99295,69.1701c1.04222,1.17426,3.74369,4.55842,4.53788,6.84943.38664.16681.77364.332,1.15286.53339,11.02463,18.41037,35.75237,22.988,57.21012,23.221,12.96134.14067,26.31795-.79929,39.15588.41338,2.2493-5.30665,4.64633-10.537,8.19926-15.22827,8.55732-11.2988,22.713-18.12331,36.61051-23.89988,9.46313-3.93336,19.40079-7.6525,29.8513-7.745,6.94062-.06152,13.75626,1.48624,20.4773,3.02318q10.82109,2.47467,21.64219,4.9492c2.10875.4822,4.33714,1.02532,5.82691,2.434,1.92066,1.8161,2.09659,4.54469,2.21866,7.032.93815,19.11045.043,33.74953,7.047,51.84147a9.13792,9.13792,0,0,1,.31527,4.287,3.51723,3.51723,0,0,1-.94665,1.78315c-4.16766,5.86168-3.03742,16.14513-5.02945,20.1292-1.66169,3.32337-2.8774,10.50145-3.98406,13.94422-2.82731,8.79624-2.20371,15.66062-3.78333,24.6993-1.17219,6.70766-5.62216,12.55354-9.95627,18.14823-2.8864,3.72582-10.78693,12.09311-15.47411,17.167.06723.14031.12632.28341.19514.42311,3.58928,7.287,9.15564,13.39491,13.47114,20.27681,11.9269,19.0195,13.56768,42.43183,17.783,64.4823,5.34909,27.98122,18.22228,53.59908,33.621,77.68681V0H-18.9243V500H135.02654A248.95916,248.95916,0,0,0,134.57194,464.856Z" transform="translate(18.9243)"/><path class="cls-2" d="M467.5203,271.94956c-4.3155-6.8819-9.88186-12.98979-13.47114-20.27681-.06882-.1397-.12791-.2828-.19514-.42311-1.13718,1.231-2.07678,2.25988-2.71619,2.9878-.14359.30555-.29642.60574-.42883.9176a438.3277,438.3277,0,0,0-43.25532-18.09887q.12529,2.239.22578,4.46809a606.2984,606.2984,0,0,1-6.6645,120.119c-1.0641,6.81551-2.27253,13.6382-3.82795,20.36313,1.67871.77558,3.34113,1.5953,4.965,2.51727a52.16485,52.16485,0,0,1,22.27285,25.70407c8.72207-4.39271,18.24988-7.41711,28.003-7.56763,24.07265-.37144,44.3424,15.98185,66.49646,25.98967V414.11867c-15.39873-24.08773-28.27192-49.70559-33.621-77.68681C481.088,314.38139,479.4472,290.96906,467.5203,271.94956Z" transform="translate(18.9243)"/><path class="cls-2" d="M131.51423,457.85279c.06589.15648.12219.31649.18882.47272.93121,2.18146,1.93877,4.34383,2.86889,6.53052-.12183-1.24733-.27308-2.48445-.42554-3.7212Q132.81889,459.50019,131.51423,457.85279Z" transform="translate(18.9243)"/><path class="cls-2" d="M263.50907,106.05928c-.48074,1.44807-3.17492,3.41967-4.53021,4.21228-5.96029,3.4852-8.59162,6.5845-11.27753,12.75209-4.56377,10.48005-.29605,11.35364-6.1305,21.24024-.09022.15283-.209.31855-.30554.4743a38.15561,38.15561,0,0,1-2.51011,6.69818,41.67491,41.67491,0,0,1-6.4082,9.38336c31.89792-.68585,63.77079-.71734,95.54665,1.78717,6.29136.49582,12.11766.907,17.83685,1.41985,3.25274-7.73638,5.99677-15.76713,9.72526-23.15335,2.00492-3.97179,3.65165-8.10224,5.38374-12.18868-12.83793-1.21267-26.19454-.27271-39.15588-.41338-21.45775-.233-46.18549-4.81059-57.21012-23.221-.37922-.20134-.76622-.36658-1.15286-.53339A2.61426,2.61426,0,0,1,263.50907,106.05928Z" transform="translate(18.9243)"/><path class="cls-2" d="M134.1464,461.13483c.15246,1.23675.30371,2.47387.42554,3.7212a248.95916,248.95916,0,0,1,.4546,35.144h27.61173a171.92319,171.92319,0,0,0-11.56422-17.88865C145.75062,474.92732,139.80954,468.10816,134.1464,461.13483Z" transform="translate(18.9243)"/><path class="cls-2" d="M424.42486,410.22774c3.7353,9.54763,4.12157,19.94549-.64282,29.09456-7.32044,14.05778-24.07362,21.06734-31.9891,34.79879-4.59636,7.97385-5.59141,16.81276-4.62482,25.87891H518.9243V428.64978c-22.15406-10.00782-42.42381-26.36111-66.49646-25.98967C442.67474,402.81063,433.14693,405.835,424.42486,410.22774Z" transform="translate(18.9243)"/><path class="cls-3" d="M391.79294,474.12109c7.91548-13.73145,24.66866-20.741,31.9891-34.79879,4.76439-9.14907,4.37812-19.54693.64282-29.09456A52.16485,52.16485,0,0,0,402.152,384.52367c-1.62387-.922-3.28629-1.74169-4.965-2.51727a132.49526,132.49526,0,0,1-7.5207,23.44978c-10.72249,24.451-30.60488,43.82324-52.41412,59.16507-7.00506,4.9278-14.363,9.55966-22.53389,12.10891-7.62721,2.37965-15.69686,2.86343-23.6758,3.242q-24.2717,1.1517-48.57876,1.21037c-38.34187.09216-79.83265-3.03486-109.006-27.97514A104.70433,104.70433,0,0,1,116.52438,434.441c3.8626,8.45373,9.19005,16.06586,14.98985,23.41184q1.302,1.64886,2.63217,3.282c5.66314,6.97333,11.60422,13.79249,16.92765,20.97652A171.92319,171.92319,0,0,1,162.63827,500H387.16812C386.20153,490.93385,387.19658,482.09494,391.79294,474.12109Z" transform="translate(18.9243)"/><path class="cls-4" d="M148.16929,145.88205a78.98159,78.98159,0,0,0-1.69951-21.21641c-1.46216-6.68614-3.791-13.1662-5.09558-19.88493a107.86966,107.86966,0,0,1-1.49986-22.10628,278.84481,278.84481,0,0,1,7.41918-60.032c8.5775,3.77993,18.06373,6.103,26.47746,10.2347a135.20962,135.20962,0,0,1,14.1959,7.76168c10.04855,6.52954,18.37912,15.35848,26.17168,24.46257a100.52246,100.52246,0,0,1,7.8412,10.10557,115.7808,115.7808,0,0,1,6.81587,12.52486c4.92476,10.0083,9.88916,20.12567,12.42114,30.98883,1.98669,8.52426,2.35107,17.64476.04852,26.01752.09653-.15575.21532-.32147.30554-.4743,5.83445-9.8866,1.56673-10.76019,6.1305-21.24024,2.68591-6.16759,5.31724-9.26689,11.27753-12.75209,1.35529-.79261,4.04947-2.76421,4.53021-4.21228a2.61426,2.61426,0,0,0-.18845-1.54229c-.79419-2.291-3.49566-5.67517-4.53788-6.84943a841.32031,841.32031,0,0,0-68.99295-69.1701c-5.40574-4.8253-11.09442-9.70982-18.10166-11.96824-4.39672-1.41706-9.08731-1.72041-13.71687-2.0127q-6.31769-.39887-12.63561-.79759a147.04172,147.04172,0,0,0-15.72956,84.44882c1.788,15.46707,6.048,30.57023,8.64948,45.93127a133.83825,133.83825,0,0,1,1.94437,18.839c2.26536-.0152,4.53022-.0248,6.79594-.05082C146.9391,157.21015,147.8545,151.55747,148.16929,145.88205Z" transform="translate(18.9243)"/><path class="cls-4" d="M345.73048,164.02675c.32937.02955.658.06067.98678.09107,4.886-7.41893,9.76112-14.8054,14.53962-21.90116a198.3928,198.3928,0,0,1,13.172-18.0562A99.75943,99.75943,0,0,1,418.43746,94.421c18.25522-6.114,39.93583-6.24552,55.16423,5.53292a19.63818,19.63818,0,0,1,6.46413,7.69834,25.53255,25.53255,0,0,1,1.44089,7.80715l2.46828,31.50763c.50384,6.43289,1.00635,12.92547.12547,19.31775-1.91762,13.91359-6.74353,23.0398-9.00086,36.90244-1.26435,7.76448-4.10078,19.19386-7.05758,26.48367-3.75026,9.24585-12.6755,15.57028-16.90419,24.56652.63941-.72792,1.579-1.75676,2.71619-2.9878,4.68718-5.07394,12.58771-13.44123,15.47411-17.167,4.33411-5.59469,8.78408-11.44057,9.95627-18.14823,1.57962-9.03868.956-15.90306,3.78333-24.6993,1.10666-3.44277,2.32237-10.62085,3.98406-13.94422,1.992-3.98407.86179-14.26752,5.02945-20.1292a3.51723,3.51723,0,0,0,.94665-1.78315,9.13792,9.13792,0,0,0-.31527-4.287c-7.004-18.09194-6.10886-32.731-7.047-51.84147-.12207-2.48736-.298-5.216-2.21866-7.032-1.48977-1.40867-3.71816-1.95179-5.82691-2.434q-10.8211-2.47466-21.64219-4.9492c-6.721-1.53694-13.53668-3.0847-20.4773-3.02318-10.45051.09252-20.38817,3.81166-29.8513,7.745-13.89753,5.77657-28.05319,12.60108-36.61051,23.89988-3.55293,4.69132-5.95,9.92162-8.19926,15.22827-1.73209,4.08644-3.37882,8.21689-5.38374,12.18868C351.72725,148.25962,348.98322,156.29037,345.73048,164.02675Z" transform="translate(18.9243)"/><path class="cls-5" d="M241.26529,144.73819c2.30255-8.37276,1.93817-17.49326-.04852-26.01752-2.532-10.86316-7.49638-20.98053-12.42114-30.98883A115.7808,115.7808,0,0,0,221.97976,75.207a100.52246,100.52246,0,0,0-7.8412-10.10557c-7.79256-9.10409-16.12313-17.933-26.17168-24.46257a135.20962,135.20962,0,0,0-14.1959-7.76168c-8.41373-4.13167-17.9-6.45477-26.47746-10.2347a278.84481,278.84481,0,0,0-7.41918,60.032,107.86966,107.86966,0,0,0,1.49986,22.10628c1.3046,6.71873,3.63342,13.19879,5.09558,19.88493a78.98159,78.98159,0,0,1,1.69951,21.21641c-.31479,5.67542-1.23019,11.3281-1.17341,17.0051,28.43642-.32706,56.90361-1.45585,85.3511-2.06742a41.67491,41.67491,0,0,0,6.4082-9.38336A38.15561,38.15561,0,0,0,241.26529,144.73819Zm-83.86462-34.60852c-.03319-3.39827.22761-6.80128.0045-10.19238-.21119-3.21164-.85449-6.38073-1.12818-9.58751-.65035-7.61748,2.47071-17.71539,3.90722-25.22442,8.25495,16.90492,12.50978,35.43249,16.69969,53.77283,1.18276,5.17777,2.37186,10.40771,2.38134,15.71874.01252,7.02269-2.03361,13.86835-4.11842,20.57444C164.7182,142.4608,157.56153,126.58546,157.40067,110.12967Z" transform="translate(18.9243)"/><path class="cls-5" d="M468.042,229.67092c2.9568-7.28981,5.79323-18.71919,7.05758-26.48367,2.25733-13.86264,7.08324-22.98885,9.00086-36.90244.88088-6.39228.37837-12.88486-.12547-19.31775l-2.46828-31.50763a25.53255,25.53255,0,0,0-1.44089-7.80715,19.63818,19.63818,0,0,0-6.46413-7.69834c-15.2284-11.77844-36.909-11.64689-55.16423-5.53292a99.75943,99.75943,0,0,0-44.00854,29.73944,198.3928,198.3928,0,0,0-13.172,18.0562c-4.7785,7.09576-9.65365,14.48223-14.53962,21.90116a219.75918,219.75918,0,0,1,23.5372,3.28617,57.339,57.339,0,0,1,24.84216,21.33252,66.59568,66.59568,0,0,1,7.56045,16.822c.03854-.04863.07952-.10213.11794-.15027,2.58609-3.24751,5.174-6.49733,7.56033-9.89451,5.197-7.39851,9.4089-15.45429,14.65853-22.81547,7.05516-9.89293,15.93759-18.46642,22.17279-28.89565q-5.49846,31.22732-10.997,62.45465c-.50944,2.893-1.05474,5.87846-2.67983,8.32534-2.81674,4.24133-8.143,5.8956-13.04925,7.25613-4.60572,1.27724-9.24707,2.55679-13.921,3.62648.42518,3.8558.71808,7.73177.93413,11.591A438.3277,438.3277,0,0,1,450.709,255.155c.13241-.31186.28524-.61205.42883-.9176C455.36652,245.2412,464.29176,238.91677,468.042,229.67092Z" transform="translate(18.9243)"/><path class="cls-6" d="M433.4898,214.58259c1.62509-2.44688,2.17039-5.43237,2.67983-8.32534q5.49845-31.22733,10.997-62.45465c-6.2352,10.42923-15.11763,19.00272-22.17279,28.89565-5.24963,7.36118-9.46154,15.417-14.65853,22.81547-2.38633,3.39718-4.97424,6.647-7.56033,9.89451-.03842.04814-.0794.10164-.11794.15027a111.11725,111.11725,0,0,1,3.86248,19.9067c4.67393-1.06969,9.31528-2.34924,13.921-3.62648C425.34683,220.47819,430.67306,218.82392,433.4898,214.58259Z" transform="translate(18.9243)"/><path class="cls-7" d="M176.8839,118.89819c-4.18991-18.34034-8.44474-36.86791-16.69969-53.77283-1.43651,7.509-4.55757,17.60694-3.90722,25.22442.27369,3.20678.917,6.37587,1.12818,9.58751.22311,3.3911-.03769,6.79411-.0045,10.19238.16086,16.45579,7.31753,32.33113,17.74615,45.0617,2.08481-6.70609,4.13094-13.55175,4.11842-20.57444C179.25576,129.3059,178.06666,124.076,176.8839,118.89819Z" transform="translate(18.9243)"/><path class="cls-8" d="M133.45775,453.20743c29.17334,24.94028,70.66412,28.0673,109.006,27.97514q24.29886-.05836,48.57876-1.21037c7.97894-.37861,16.04859-.86239,23.6758-3.242,8.17093-2.54925,15.52883-7.18111,22.53389-12.10891,21.80924-15.34183,41.69163-34.714,52.41412-59.16507a132.49526,132.49526,0,0,0,7.5207-23.44978c1.55542-6.72493,2.76385-13.54762,3.82795-20.36313a606.2984,606.2984,0,0,0,6.6645-120.119q-.09811-2.227-.22578-4.46809c-.216-3.8592-.509-7.73517-.93413-11.591a111.11725,111.11725,0,0,0-3.86248-19.9067,66.59568,66.59568,0,0,0-7.56045-16.822A57.339,57.339,0,0,0,370.25446,167.404a219.75918,219.75918,0,0,0-23.5372-3.28617c-.32877-.0304-.65741-.06152-.98678-.09107-5.71919-.51284-11.54549-.924-17.83685-1.41985-31.77586-2.50451-63.64873-2.473-95.54665-1.78717-28.44749.61157-56.91468,1.74036-85.3511,2.06742-2.26572.026-4.53058.03562-6.79594.05082-2.0054.01337-4.0113.036-6.01634.03988-12.22125.02347-26.23077.87747-33.7387,10.54583-3.67986,4.739-5.068,10.82571-6.21647,16.71986-6.19628,31.79981-8.318,64.14661-8.87137,96.58826.38615.02748.78215.03878,1.16745.06772,8.85143.66555,16.95476.63722,25.76522,1.713,1.87118.22845,3.74941.41691,5.628.60342a69.52923,69.52923,0,0,1-10.57343-11.24555c-5.18665-6.73259-9.67322-14.13122-12.16617-22.26968s-2.88933-17.08741-.05229-25.1122a32.88273,32.88273,0,0,1,5.258-9.49194c4.65144-5.84539,12.14138-10.198,17.341-10.98779a40.79282,40.79282,0,0,1-5.85791-8.46686c-2.73346-5.48368-3.67525-12.16886-1.068-17.71163,4.17495-8.875,16.12131-11.795,25.57483-9.00669s16.96351,9.78,24.095,16.54794q13.91858,13.20876,27.837,26.41765c4.2789,4.06078,8.70967,8.35318,10.58352,13.92963s-3.07024,14.099-4.53545,14.95714a18.455,18.455,0,0,1-10.43482,7.60167,25.7974,25.7974,0,0,1,11.42148,23.52322,25.39455,25.39455,0,0,1-7.349,15.27265c13.55771,1.33645,26.90034,3.66344,39.78374,8.22126,5.40951,1.91386,11.3754,5.00136,12.51914,10.5924,2.20626,6.52894-3.13663,13.0028-8.35124,17.53812-7.9612,6.924-18.30836,10.68006-28.7551,12.34977a115.04873,115.04873,0,0,1-16.20447,1.28977,91.73254,91.73254,0,0,1,9.20415,4.33228c-15.14729,6.89211-35.24209,5.57888-50.453,12.33165A59.48325,59.48325,0,0,0,113.483,395.98163c-.6799,2.18462-1.60248,4.78262-3.84631,5.29145a5.33213,5.33213,0,0,1-3.13006-.476c-6.51167-2.64445-10.63191-9.08427-13.31563-15.54536a69.04265,69.04265,0,0,1-2.75461-44.44442q-2.48979-.06693-4.97971-.1335.02169,1.67622.04267,3.3528c.13909,10.469.00462,19.62354,1.91215,29.1,2.128,10.57149,6.65466,20.34635,11.292,30.07721,5.15006,10.80674,10.863,21.53118,17.82093,31.23711A104.70433,104.70433,0,0,0,133.45775,453.20743ZM234.0342,299.19665a25.85538,25.85538,0,0,1-5.12027-16.43573,35.24735,35.24735,0,0,1,2.42415-10.85562,40.99618,40.99618,0,0,1,9.89486-15.58378,45.63424,45.63424,0,0,1,4.10407-3.37615c-8.33251,3.78418-17.84695,5.55505-26.43953,2.61941-7.32859-1.10946-7.08993-6.67119-5.74521-13.91432s6.40031-13.16973,11.26865-18.72308c17.45715-19.91314,37.148-41.09915,63.415-45.14218,7.44507-1.14593,16.15827-.30542,20.76423,5.61973,3.69032,4.74737,3.61153,11.51412,1.64054,17.18273-4.96634,14.28369-19.13793,22.38544-32.16407,30.73959.22359-.08279.46311-.18444.6726-.25107,2.44882-2.37939,6.2454-2.54755,9.67091-2.5546,12.32108-.02541,24.98381.24062,36.387,4.88s21.41361,14.64527,22.44622,26.845c.953,11.25856-5.6314,21.684-12.49385,30.691a47.09133,47.09133,0,0,1-7.01831,7.81007c-4.88877,4.08473-15.66549,9.815-16.28933,10.0314-.93778.32512-6.55034,2.45637-7.34745,2.69139-.969.2856-7.53893,1.865-7.53893,1.865s-10.44139,1.9507-15.50573,2.41649c-3.90187.35879-11.435-.441-17.04644-1.588C252.80373,311.87275,240.879,308.311,234.0342,299.19665Zm77.73958,41.62014c6.73028-.05727,13.5926-.13557,19.97236-2.26511,5.12452-1.71069,9.78143-4.69971,15.01878-6.03118a4.93422,4.93422,0,0,1,3.4035.0394c1.58254.795,1.96771,2.82755,2.16565,4.57848q1.52376,13.47449,3.04763,26.94885c.74871,6.621,1.48648,13.41849-.19162,19.86865s-6.3276,12.57579-12.8665,14.04951c-8.43465,1.90109-16.426-4.17446-22.674-10.11907-12.16046-11.57017-23.06411-25.23779-38.15828-32.64846-3.4204-1.67932-43.63259-7.5827-51.22564-7.44993C257.20008,347.55886,284.8394,341.04585,311.77378,340.81679ZM118.029,401.52671c.7723-3.79306,5.08537-7.85591,7.72739-11.05041a61.79144,61.79144,0,0,1,8.77594-8.68073c7.43072-6.01853,15.96178-10.53428,24.54877-14.77a104.99364,104.99364,0,0,1,16.08629-6.74633c10.6048-3.1855,21.87466-3.30028,32.951-3.0334,24.90064.5999,50.68155,3.28082,72.18149,15.78124A41.44847,41.44847,0,0,1,288.597,379.934a51.48029,51.48029,0,0,1,9.2365,12.33007c2.56663,4.85412,4.99625,9.86934,6.01062,15.25891,1.00222,5.32477.48281,11.11363-2.43873,15.67862.06675-.102.12718-.19234.195-.296l-.293.46736c.03636-.05532.06238-.11562.098-.17131-3.21273,4.90446-5.27662,7.90819-10.39968,10.98183-2.59752,1.55847-5.54253,2.85856-8.56316,2.56883-2.65734-.255-5.03309-1.70595-7.22428-3.22161-8.48839-5.87154-15.80239-13.25326-22.74168-20.87378-5.21862-5.73086-10.487-11.79717-17.57216-14.98559a53.21587,53.21587,0,0,0-11.7641-3.24678c-9.54568-1.86157-19.26474-3.7319-28.938-2.71619-11.12032,1.16782-21.56171,6.12565-30.65947,12.58419s-17.00461,14.40478-24.87438,22.29655c-2.27216,2.27837-5.14361,4.74859-8.301,4.0789-2.18183-.46287-3.76072-2.33344-4.91771-4.22893C120.99685,419.144,116.32681,409.88791,118.029,401.52671Z" transform="translate(18.9243)"/><path class="cls-9" d="M281.05984,315.75189c5.06434-.46579,15.50573-2.41649,15.50573-2.41649s6.56991-1.57937,7.53893-1.865c.79711-.235,6.40967-2.36627,7.34745-2.69139.62384-.21642,11.40056-5.94667,16.28933-10.0314a47.09133,47.09133,0,0,0,7.01831-7.81007c6.86245-9.00694,13.44683-19.4324,12.49385-30.691-1.03261-12.19974-11.04286-22.20573-22.44622-26.845s-24.066-4.90543-36.387-4.88c-3.42551.007-7.22209.17521-9.67091,2.5546-.20949.06663-.449.16828-.6726.25107-1.68564,1.081-3.35475,2.16542-4.97947,3.26891-8.34334,5.66667-16.0497,12.32922-24.99281,17.00656-.90409.47284-1.83032.91711-2.76737,1.34265a45.63424,45.63424,0,0,0-4.10407,3.37615,40.99618,40.99618,0,0,0-9.89486,15.58378,35.24735,35.24735,0,0,0-2.42415,10.85562,25.85538,25.85538,0,0,0,5.12027,16.43573c6.84481,9.1143,18.76953,12.6761,29.9792,14.96723C269.62487,315.3109,277.158,316.11068,281.05984,315.75189Zm-37.16676-16.18441a17.49182,17.49182,0,0,1-6.08321-5.60928,19.466,19.466,0,0,1-2.23471-3.54964c-2.06645-4.52512-.85608-10.126,2.34328-13.944s8.10212-5.96735,13.0642-6.58268a39.42442,39.42442,0,0,1,14.83616,1.45925c5.21608,1.32636,6.85722,6.9895,8.17884,12.17554a14.41512,14.41512,0,0,1,.52512,4.81193c-.39588,4.4473-3.92145,8.14236-8.00777,9.99834s-8.685,2.19532-13.17338,2.40468C250.137,300.88119,246.7841,300.94989,243.89308,299.56748Z" transform="translate(18.9243)"/><path class="cls-9" d="M139.58655,282.49113c-.12243-2.76774.17849-5.72855,1.88881-7.91621a11.8914,11.8914,0,0,1,4.05519-3.051,33.19751,33.19751,0,0,1,31.62667,1.03723c3.51146,2.1079,6.73709,5.06993,7.99171,8.95089s-.01556,8.74566-3.63171,10.66924c-.13678.14274-.30129.25423-.44464.38968q3.46826.26153,6.919.60257a25.39455,25.39455,0,0,0,7.349-15.27265,25.7974,25.7974,0,0,0-11.42148-23.52322,22.03346,22.03346,0,0,1-11.81334.12414c-8.3493-2.21854-15.305-7.83572-21.83065-13.46713q-13.94994-12.03826-26.99614-25.06137c-1.9006-1.89732-3.79075-3.83391-5.55408-5.86449-5.19966.78981-12.6896,5.1424-17.341,10.98779a32.88273,32.88273,0,0,0-5.258,9.49194c-2.837,8.02479-2.44055,16.97385.05229,25.1122s6.97952,15.53709,12.16617,22.26968a69.52923,69.52923,0,0,0,10.57343,11.24555c8.11415.80537,16.28922,1.26289,24.4813,1.59518C140.39034,288.62893,139.71871,285.47638,139.58655,282.49113Z" transform="translate(18.9243)"/><path class="cls-10" d="M274.52276,288.32862a14.41512,14.41512,0,0,0-.52512-4.81193c-1.32162-5.186-2.96276-10.84918-8.17884-12.17554a39.42442,39.42442,0,0,0-14.83616-1.45925c-4.96208.61533-9.86484,2.76482-13.0642,6.58268s-4.40973,9.41886-2.34328,13.944a19.466,19.466,0,0,0,2.23471,3.54964,17.49182,17.49182,0,0,0,6.08321,5.60928c2.891,1.38241,6.244,1.31371,9.44853,1.16416,4.4884-.20936,9.08707-.5487,13.17338-2.40468S274.12688,292.77592,274.52276,288.32862Z" transform="translate(18.9243)"/><path class="cls-11" d="M185.14893,281.512c-1.25462-3.881-4.48025-6.843-7.99171-8.95089a33.19751,33.19751,0,0,0-31.62667-1.03723,11.8914,11.8914,0,0,0-4.05519,3.051c-1.71032,2.18766-2.01124,5.14847-1.88881,7.91621.13216,2.98525.80379,6.1378,2.81248,8.32,12.92219.52415,25.87514.79528,38.67355,1.75981.14335-.13545.30786-.24694.44464-.38968C185.13337,290.25767,186.40368,285.393,185.14893,281.512Z" transform="translate(18.9243)"/><path class="cls-12" d="M273.09719,234.59616c1.62472-1.10349,3.29383-2.1879,4.97947-3.26891,13.02614-8.35415,27.19773-16.4559,32.16407-30.73959,1.971-5.66861,2.04978-12.43536-1.64054-17.18273-4.606-5.92515-13.31916-6.76566-20.76423-5.61973-26.267,4.043-45.95789,25.229-63.415,45.14218-4.86834,5.55335-9.92393,11.48-11.26865,18.72308s-1.58338,12.80486,5.74521,13.91432c8.59258,2.93564,18.107,1.16477,26.43953-2.61941.937-.42554,1.86328-.86981,2.76737-1.34265C257.04749,246.92538,264.75385,240.26283,273.09719,234.59616Z" transform="translate(18.9243)"/><path class="cls-12" d="M150.27512,241.03464c6.52566,5.63141,13.48135,11.24859,21.83065,13.46713a22.03346,22.03346,0,0,0,11.81334-.12414,18.455,18.455,0,0,0,10.43482-7.60167c1.46521-.85814,6.4093-9.38057,4.53545-14.95714s-6.30462-9.86885-10.58352-13.92963q-13.91857-13.20878-27.837-26.41765c-7.13151-6.768-14.64163-13.75978-24.095-16.54794s-21.39988.13167-25.57483,9.00669c-2.60725,5.54277-1.66546,12.22795,1.068,17.71163a40.79282,40.79282,0,0,0,5.85791,8.46686c1.76333,2.03058,3.65348,3.96717,5.55408,5.86449Q136.3134,228.98525,150.27512,241.03464Z" transform="translate(18.9243)"/><path class="cls-13" d="M319.64962,387.88632c6.248,5.94461,14.23931,12.02016,22.674,10.11907,6.5389-1.47372,11.1884-7.59948,12.8665-14.04951s.94033-13.24767.19162-19.86865q-1.52376-13.47448-3.04763-26.94885c-.19794-1.75093-.58311-3.78345-2.16565-4.57848a4.93422,4.93422,0,0,0-3.4035-.0394c-5.23735,1.33147-9.89426,4.32049-15.01878,6.03118-6.37976,2.12954-13.24208,2.20784-19.97236,2.26511-26.93438.22906-54.5737,6.74207-81.50808,6.97114,7.593-.13277,47.80524,5.77061,51.22564,7.44993C296.58551,362.64853,307.48916,376.31615,319.64962,387.88632Z" transform="translate(18.9243)"/><path class="cls-13" d="M171.51268,342.98183q-40.53816-1.08714-81.07633-2.17453A69.04265,69.04265,0,0,0,93.191,385.25172c2.68372,6.46109,6.804,12.90091,13.31563,15.54536a5.33213,5.33213,0,0,0,3.13006.476c2.24383-.50883,3.16641-3.10683,3.84631-5.29145a59.48325,59.48325,0,0,1,32.25185-36.15288c15.21088-6.75277,35.30568-5.43954,50.453-12.33165a91.73254,91.73254,0,0,0-9.20415-4.33228C181.83054,343.25321,176.6631,343.12,171.51268,342.98183Z" transform="translate(18.9243)"/><path class="cls-14" d="M171.51268,342.98183c5.15042.13812,10.31786.27138,15.471.183a115.04873,115.04873,0,0,0,16.20447-1.28977c10.44674-1.66971,20.7939-5.4258,28.7551-12.34977,5.21461-4.53532,10.5575-11.00918,8.35124-17.53812-1.14374-5.591-7.10963-8.67854-12.51914-10.5924-12.8834-4.55782-26.226-6.88481-39.78374-8.22126q-3.45092-.34014-6.919-.60257c-12.79841-.96453-25.75136-1.23566-38.67355-1.75981-8.19208-.33229-16.36715-.78981-24.4813-1.59518-1.87859-.18651-3.75682-.375-5.628-.60342-8.81046-1.07578-16.91379-1.04745-25.76522-1.713-.3853-.02894-.7813-.04024-1.16745-.06772-15.06012-1.07347-30.77668-1.08441-45.82816-1.78473-5.33815-.2484-10.74547-.7734-15.98343.27757a26.57915,26.57915,0,0,0-8.05591,49.18559c7.6762,4.39234,16.94771,4.74153,25.8017,4.979q22.0828.59217,44.16538,1.18459,2.48979.06694,4.97971.1335Q130.97451,341.89446,171.51268,342.98183Z" transform="translate(18.9243)"/><path class="cls-15" d="M125.44974,426.439c1.157,1.89549,2.73588,3.76606,4.91771,4.22893,3.15741.66969,6.02886-1.80053,8.301-4.0789,7.86977-7.89177,15.77662-15.838,24.87438-22.29655s19.53915-11.41637,30.65947-12.58419c9.67322-1.01571,19.39228.85462,28.938,2.71619a53.21587,53.21587,0,0,1,11.7641,3.24678c7.08518,3.18842,12.35354,9.25473,17.57216,14.98559,6.93929,7.62052,14.25329,15.00224,22.74168,20.87378,2.19119,1.51566,4.56694,2.96665,7.22428,3.22161,3.02063.28973,5.96564-1.01036,8.56316-2.56883,5.12306-3.07364,7.187-6.07737,10.39968-10.98183,2.92154-4.565,3.44095-10.35385,2.43873-15.67862-1.01437-5.38957-3.444-10.40479-6.01062-15.25891A51.48029,51.48029,0,0,0,288.597,379.934a41.44847,41.44847,0,0,0-8.29713-6.90694c-21.49994-12.50042-47.28085-15.18134-72.18149-15.78124-11.0763-.26688-22.34616-.1521-32.951,3.0334a104.99364,104.99364,0,0,0-16.08629,6.74633c-8.587,4.23574-17.118,8.75149-24.54877,14.77a61.79144,61.79144,0,0,0-8.77594,8.68073c-2.642,3.1945-6.95509,7.25735-7.72739,11.05041C116.32681,409.88791,120.99685,419.144,125.44974,426.439Z" transform="translate(18.9243)"/><path class="cls-15" d="M301.60036,422.90555c-.06784.10371-.12827.194-.195.296-.03562.05569-.06164.116-.098.17131Z" transform="translate(18.9243)"/></svg>